<svg xmlns="http://www.w3.org/2000/svg" xmlns:xlink="http://www.w3.org/1999/xlink" viewBox="0,0,256,256" width="48px" height="48px"><g fill="none" fill-rule="nonzero" stroke="none" stroke-width="1" stroke-linecap="butt" stroke-linejoin="miter" stroke-miterlimit="10" stroke-dasharray="" stroke-dashoffset="0" font-family="none" font-weight="none" font-size="none" text-anchor="none" style="mix-blend-mode: normal"><g transform="scale(5.33333,5.33333)"><path d="M24,4c-11.04569,0 -20,8.95431 -20,20c0,11.04569 8.95431,20 20,20c11.04569,0 20,-8.95431 20,-20c0,-11.04569 -8.95431,-20 -20,-20z" fill="#000000"></path><path d="M24,43.997c-0.199,0 -0.652,0.006 -0.85,0l4,-10.999h5.625c0.987,0 2.071,-0.759 2.409,-1.686l4.748,-12.687c0.725,-1.995 -0.417,-3.626 -2.539,-3.626h-7.804l-6.518,18.257h-0.002l-3.712,10.198c-8.807,-2.093 -15.357,-10.009 -15.357,-19.455c0,-9.174 6.178,-16.905 14.6,-19.261l-3.83,10.526h-0.001l-6.619,17.734h4.239l5.576,-14.999h3.185l-5.576,14.999l3.919,0.001l5.438,-14.374c0.726,-1.995 -0.416,-3.626 -2.536,-3.626h-3.245l3.951,-10.978c0.298,-0.013 0.598,-0.021 0.899,-0.021c11.046,0 20,8.953 20,19.999c0,11.046 -8.954,19.998 -20,19.998zM36.15,17.999h-3.185l-4.509,11.999h3.185z" fill="#ffffff"></path></g></g></svg>