<svg width="493" height="314" viewBox="0 0 493 314" fill="none" xmlns="http://www.w3.org/2000/svg">
<mask id="mask0_236_6" style="mask-type:luminance" maskUnits="userSpaceOnUse" x="-117" y="-79" width="716" height="492">
<path d="M598.092 -78.4375H-116.637V412.545H598.092V-78.4375Z" fill="white"/>
</mask>
<g mask="url(#mask0_236_6)">
<path fill-rule="evenodd" clip-rule="evenodd" d="M55.9044 217.407L163.061 165.935L176.985 159.493C158.793 108.055 186.64 67.2977 238.034 49.0893C268.05 38.3405 294.813 38.3405 325.88 40.5106C368.736 46.9192 411.592 64.0764 441.574 97.3059C400.886 44.783 334.451 12.6046 269.1 9.38341C212.354 7.21332 150.221 22.2344 104.147 55.4978C71.9627 79.0975 4.47734 140.199 55.9044 217.407Z" fill="#2E3092"/>
<path fill-rule="evenodd" clip-rule="evenodd" d="M252.297 181.838H240.71C237.831 181.838 236.713 182.143 234.748 179.769C232.343 176.853 232.681 171.462 235.832 169.122C240.948 165.426 246.741 174.514 238.746 175.666L238.576 177.565L241.388 177.633C244.098 177.701 248.198 176.006 248.299 172.547C248.706 158.035 232.58 158.679 227.803 166.511C224.991 171.123 225.364 181.905 228.718 186.076C230.784 188.619 233.901 190.416 236.984 190.416L268.253 189.976C273.877 189.467 274.724 181.465 271.269 178.142C269.1 175.09 255.007 165.257 266.356 164.307H279.636V189.976H287.259V164.307H297.321V157.153H268.05C249.248 157.119 249.519 168.275 263.51 179.43C264.425 180.007 264.29 182.109 263.002 182.143L252.297 181.939V181.838Z" fill="white"/>
<path fill-rule="evenodd" clip-rule="evenodd" d="M252.297 181.838H240.71C237.831 181.838 236.713 182.143 234.748 179.769C232.343 176.853 232.681 171.462 235.832 169.122C240.948 165.426 246.741 174.514 238.746 175.666L238.576 177.565L241.388 177.633C244.098 177.701 248.198 176.006 248.299 172.547C248.706 158.035 232.58 158.679 227.803 166.511C224.991 171.123 225.364 181.905 228.718 186.076C230.784 188.619 233.901 190.416 236.984 190.416L268.253 189.976C273.877 189.467 274.724 181.465 271.269 178.142C269.1 175.09 255.007 165.257 266.356 164.307H279.636V189.976H287.259V164.307H297.321V157.153H268.05C249.248 157.119 249.519 168.275 263.51 179.43C264.425 180.007 264.29 182.109 263.002 182.143L252.297 181.939V181.838Z" stroke="black" stroke-width="0.264566"/>
<path fill-rule="evenodd" clip-rule="evenodd" d="M440.964 95.5767L333.841 147.048L319.917 153.457C338.11 204.929 309.178 252.128 258.835 266.064C182.778 287.528 104.587 270.371 56.3447 216.729C97.1002 269.286 161.367 301.464 226.718 304.685C268.49 305.736 316.699 299.328 356.336 281.085C370.26 275.728 383.1 267.149 393.805 259.656C425.956 236.056 482.77 181.363 440.964 95.5767Z" fill="#ED1C24"/>
<path fill-rule="evenodd" clip-rule="evenodd" d="M206.121 157.288L195.788 157.153L195.957 190.484L205.443 190.654L205.206 175.395L213.676 190.348L222.586 190.315L222.382 157.288L212.93 157.221L212.659 174.039L206.121 157.288Z" fill="white"/>
<path fill-rule="evenodd" clip-rule="evenodd" d="M206.121 157.288L195.788 157.153L195.957 190.484L205.443 190.654L205.206 175.395L213.676 190.348L222.586 190.315L222.382 157.288L212.93 157.221L212.659 174.039L206.121 157.288Z" stroke="black" stroke-width="0.264566"/>
</g>
</svg>
