<svg width="221" height="38" viewBox="0 0 221 38" fill="none" xmlns="http://www.w3.org/2000/svg">
<path d="M209.667 6C209.667 3.05448 212.054 0.666664 215 0.666664C217.946 0.666664 220.333 3.05448 220.333 6C220.333 8.94552 217.946 11.3333 215 11.3333C212.054 11.3333 209.667 8.94552 209.667 6ZM0 38L0 28.7692H2L2 38H0ZM9 19.7692L207 19.7692V21.7692L9 21.7692L9 19.7692ZM214 12.7692V6H216V12.7692H214ZM207 19.7692C210.866 19.7692 214 16.6352 214 12.7692H216C216 17.7398 211.971 21.7692 207 21.7692V19.7692ZM0 28.7692C0 23.7987 4.02944 19.7692 9 19.7692L9 21.7692C5.13401 21.7692 2 24.9032 2 28.7692H0Z" fill="#110101"/>
</svg>
