

<svg id="my-svg" width="959" height="2489" viewBox="0 0 959 2489" fill="none" xmlns="http://www.w3.org/2000/svg">
<g filter="url(#filter0_d_458_118)">
<path d="M24.0001 190C24.0001 188.343 22.6569 187 21.0001 187C19.3432 187 18.0001 188.343 18.0001 190H24.0001ZM7 2475C5.34315 2475 4 2476.34 4 2478C4 2479.66 5.34315 2481 7 2481V2475ZM952 1263H949H952ZM89.0001 261H872V255H89.0001V261ZM949 338V645H955V338H949ZM872 722H101V728H872V722ZM18.0001 805L18 1103H24L24.0001 805H18.0001ZM101 1186H872V1180H101V1186ZM949 1263L949 1519H955L955 1263H949ZM872 1596H101V1602H872V1596ZM18.0001 1679V1920H24.0001V1679H18.0001ZM101 2003H872V1997H101V2003ZM949 2080V2398H955V2080H949ZM872 2475H7V2481H872V2475ZM24.0001 190V83H18.0001V190H24.0001ZM101 6H453V0H101V6ZM24.0001 83C24.0001 40.4741 58.4742 6 101 6V0C55.1605 0 18.0001 37.1604 18.0001 83H24.0001ZM949 2398C949 2440.53 914.526 2475 872 2475V2481C917.84 2481 955 2443.84 955 2398H949ZM872 2003C914.526 2003 949 2037.47 949 2080H955C955 2034.16 917.84 1997 872 1997V2003ZM18.0001 1920C18.0001 1965.84 55.1605 2003 101 2003V1997C58.4742 1997 24.0001 1962.53 24.0001 1920H18.0001ZM101 1596C55.1604 1596 18.0001 1633.16 18.0001 1679H24.0001C24.0001 1636.47 58.4742 1602 101 1602V1596ZM949 1519C949 1561.53 914.526 1596 872 1596V1602C917.84 1602 955 1564.84 955 1519H949ZM872 1186C914.526 1186 949 1220.47 949 1263H955C955 1217.16 917.84 1180 872 1180V1186ZM18 1103C18 1148.84 55.1604 1186 101 1186V1180C58.4741 1180 24 1145.53 24 1103H18ZM101 722C55.1604 722 18.0001 759.16 18.0001 805H24.0001C24.0001 762.474 58.4742 728 101 728V722ZM949 645C949 687.526 914.526 722 872 722V728C917.84 728 955 690.84 955 645H949ZM872 261C914.526 261 949 295.474 949 338H955C955 292.16 917.84 255 872 255V261ZM18.0001 190C18.0001 229.212 49.7879 261 89.0001 261V255C53.1016 255 24.0001 225.899 24.0001 190H18.0001Z" fill="black"/>
</g>
<defs>
<filter id="filter0_d_458_118" x="0" y="0" width="959" height="2489" filterUnits="userSpaceOnUse" color-interpolation-filters="sRGB">
<feFlood flood-opacity="0" result="BackgroundImageFix"/>
<feColorMatrix in="SourceAlpha" type="matrix" values="0 0 0 0 0 0 0 0 0 0 0 0 0 0 0 0 0 0 127 0" result="hardAlpha"/>
<feOffset dy="4"/>
<feGaussianBlur stdDeviation="2"/>
<feComposite in2="hardAlpha" operator="out"/>
<feColorMatrix type="matrix" values="0 0 0 0 0 0 0 0 0 0 0 0 0 0 0 0 0 0 0.15 0"/>
<feBlend mode="normal" in2="BackgroundImageFix" result="effect1_dropShadow_458_118"/>
<feBlend mode="normal" in="SourceGraphic" in2="effect1_dropShadow_458_118" result="shape"/>
</filter>
</defs>
</svg>
